<?xml version="1.0" encoding="UTF-8" standalone="no"?>
<svg
   xmlns:dc="http://purl.org/dc/elements/1.1/"
   xmlns:cc="http://creativecommons.org/ns#"
   xmlns:rdf="http://www.w3.org/1999/02/22-rdf-syntax-ns#"
   xmlns:svg="http://www.w3.org/2000/svg"
   xmlns="http://www.w3.org/2000/svg"
   viewBox="0 0 1066.6667 311.95999"
   height="311.95999"
   width="1066.6667"
   xml:space="preserve"
   id="svg2"
   version="1.1"><metadata
     id="metadata8"><rdf:RDF><cc:Work
         rdf:about=""><dc:format>image/svg+xml</dc:format><dc:type
           rdf:resource="http://purl.org/dc/dcmitype/StillImage" /></cc:Work></rdf:RDF></metadata><defs
     id="defs6" /><g
     transform="matrix(1.3333333,0,0,-1.3333333,0,311.96)"
     id="g10"><g
       transform="scale(0.1)"
       id="g12"><path
         id="path14"
         style="fill:#f2531b;fill-opacity:1;fill-rule:evenodd;stroke:none"
         d="m 246.875,516.031 386.273,208.278 c 182.227,112.07 218.106,224.863 250.094,370.421 l 155.938,888.92 c 23.21,154.67 15.59,203.61 -129.137,72.55 L 661.262,1773.22 c -33.449,-37.61 -82.985,-44.78 -46.887,8.16 70.938,99.25 246.086,344.05 353.344,450.17 130.861,124.96 333.301,139.48 501.021,54.6 192.55,-94.49 313.65,-158.13 493.77,-260.49 93.14,-55.53 16.78,-68.87 -25.86,-47.2 l -390.14,177.7 c -122.84,54.99 -281.13,82.39 -301.1,-94.59 l -71.85,-996.26 c -14.99,-202.779 61.68,-226.509 238.16,-296.04 144.89,-48.321 289.49,-99.809 434.38,-148.129 144.89,-48.34 316.07,-100.672 460.96,-148.993 184.37,-58.839 262.14,80.641 229.87,199.114 l -147.65,496.678 c -19.62,78.2 13.23,88.44 36.74,34.45 L 2670.1,635.648 c 70.7,-182.07 -49.3,-458.007 -273.54,-464.339 l -663.51,-14.668 c -64.17,-0.032 -83.26,33.25 21.99,39.488 l 461.02,32.031 c 192.47,19.328 178.99,108.121 58.3,134.121 l -813.45,191.77 c -231.37,60.429 -504.762,93.418 -756.555,-2.012 l -368.343,-158 C 239.918,348.328 267.578,266.121 325.289,251.77 563.59,221.141 688.633,213.48 894.746,200.75 c 56.914,-7.238 82.156,-27.949 -4.558,-32.891 -169.575,0.473 -288.215,-0.89 -521.543,10.692 C 61.6016,194.199 -68.75,335.148 35.293,574.141 l 262.594,506.699 c 33.578,66.6 57.25,34.09 26.855,-30.44 L 169.008,663.371 c -57.43,-153.422 18.957,-180.269 77.867,-147.34" /><path
         id="path16"
         style="fill:#ffffff;fill-opacity:1;fill-rule:evenodd;stroke:none"
         d="m 6943.91,111.238 v 165.051 c 0,30.211 -4.82,51.383 -14.59,63.492 -9.67,12.117 -26,18.168 -48.82,18.168 -12.27,0 -25.12,-3.519 -38.56,-10.398 -13.33,-6.871 -23.67,-15.371 -30.82,-25.41 V 111.238 h -53.74 v 283.801 h 36.72 l 17.02,-36.629 c 17.77,27.942 46.77,41.879 86.98,41.879 66.4,0 99.65,-37.82 99.65,-113.418 V 111.238 Z M 6249.17,359.77 c -18.66,0 -33.93,-6.149 -45.73,-18.551 -11.78,-12.379 -17.68,-27.399 -17.68,-45.039 0,-19.801 5.7,-36.168 17.11,-49.2 11.4,-12.929 26.87,-19.429 46.3,-19.429 19.04,0 33.91,6.328 44.74,18.988 10.72,12.57 16.14,29.121 16.14,49.641 0,17.64 -5.8,32.66 -17.4,45.039 -11.6,12.402 -26.09,18.551 -43.48,18.551 z m -114.15,-326.1294 29.18,40.25 C 6195.52,54.2617 6224.42,44.5 6250.9,44.5 c 24.26,0 43.5,3.8789 57.6,11.7617 14.02,7.8477 21.08,17.6289 21.08,29.2969 0,22.9724 -17.79,34.4534 -53.27,34.4534 -5.97,0 -16.99,-1.442 -32.85,-4.262 -15.85,-2.801 -28.22,-4.238 -37.02,-4.238 -43.1,0 -64.56,15.187 -64.56,45.578 0,9.32 5.02,17.808 15.08,25.41 10.14,7.602 22.61,13.121 37.5,16.469 -42.62,18.722 -63.99,51.191 -63.99,97.492 0,29.668 11.12,54.348 33.16,74.16 22.13,19.801 49.38,29.668 81.86,29.668 29.77,0 53.16,-5.711 69.89,-17.187 l 26.96,30.199 35.09,-31.02 -32.29,-22.793 c 13.83,-16.718 20.69,-38.707 20.69,-65.648 0,-28.668 -9.58,-52.649 -28.62,-72.078 -19.04,-19.442 -44.07,-30.582 -75,-33.383 l -44.46,-4.25 c -5.31,-0.527 -12.37,-2.438 -21.26,-5.699 -8.9,-3.25 -13.34,-7.598 -13.34,-12.828 0,-7.243 9.28,-10.954 27.73,-10.954 8.13,0 20.79,1.461 37.99,4.161 17.21,2.73 29.96,4.062 38.27,4.062 29.78,0 53.07,-6.59 69.8,-19.98 16.72,-13.301 25.02,-31.832 25.02,-55.5199 0,-26.1523 -12.46,-47.2109 -37.49,-63.3203 C 6319.43,7.96094 6287.72,0 6249.46,0 c -19.63,0 -40.31,3.25 -62.06,9.76953 -21.64,6.51177 -39.13,14.46097 -52.38,23.87107 z m -448.38,77.5974 v 241.383 h -41.65 v 42.418 h 95.48 V 111.238 h -53.83 z m 29.48,391.063 c 9.18,0 17.11,-2.992 23.58,-9.129 6.57,-6.063 9.76,-13.391 9.76,-21.891 0,-8.59 -3.19,-16.011 -9.76,-22.07 -6.47,-6.152 -14.4,-9.133 -23.58,-9.133 -9.09,0 -16.92,2.981 -23.4,9.133 -6.47,6.059 -9.76,13.48 -9.76,22.07 0,8.68 3.2,16.008 9.67,22.059 6.38,5.969 14.2,8.961 23.49,8.961 z m -630.28,-374.063 19.04,47.672 c 29.96,-18.359 54.13,-27.59 72.49,-27.59 33.14,0 49.76,13.11 49.76,39.25 0,18.719 -16.04,34.821 -48.12,48.2 -24.75,10.589 -41.37,18.64 -49.97,24.152 -8.61,5.418 -16.05,11.656 -22.34,18.637 -6.36,6.953 -11,14.382 -14.2,22.23 -3.08,7.883 -4.63,16.289 -4.63,25.34 0,23.332 9.09,41.5 27.15,54.621 18.17,13.02 41.85,19.539 71.14,19.539 22.03,0 49.87,-6.519 83.51,-19.539 l -15.27,-46.68 c -21.37,15.93 -42.82,23.879 -64.27,23.879 -12.86,0 -23.69,-2.89 -32.49,-8.488 -8.79,-5.699 -13.13,-12.852 -13.13,-21.531 0,-18.18 11.01,-31.918 33.15,-41.34 l 38.46,-16.352 c 23.59,-10.136 40.79,-21.527 51.52,-34.468 10.82,-12.93 16.14,-29.032 16.14,-48.461 0,-25.418 -9.47,-45.411 -28.61,-59.789 -19.04,-14.379 -45.43,-21.61 -79.25,-21.61 -31.9,0 -61.96,7.41 -90.08,22.328 z m -491.59,229.711 c -24.07,0 -44.17,-7.308 -60.41,-21.789 -15.47,-13.75 -24.16,-30.84 -26.29,-51.371 h 167.89 c 0,20.352 -6.76,37.262 -20.4,50.84 -14.88,14.91 -35.18,22.32 -60.79,22.32 z M 4724.73,248.25 h -218.62 c 0,-33.281 9.75,-58.781 29.18,-76.602 17.21,-15.539 39.25,-23.328 66.31,-23.328 30.73,0 56.44,8.41 77.03,25.141 l 22.62,-36.262 c -8.32,-7.777 -21.08,-14.48 -38.28,-20.179 -21.46,-7.411 -45.43,-11.11 -71.9,-11.11 -38.09,0 -70.47,12.11 -97.15,36.352 -29.57,26.687 -44.45,62.5 -44.45,107.527 0,46.84 15.27,84.383 45.62,112.602 27.15,25.32 59.34,37.898 96.56,37.898 43.19,0 77.11,-11.398 101.68,-34.187 23.76,-21.891 35.65,-50.922 35.65,-87.102 0,-11.211 -1.46,-21.43 -4.25,-30.75 z m -706.35,81.039 c -13.62,19.082 -32.18,28.66 -55.76,28.66 -28.9,0 -52.29,-10.129 -70.07,-30.199 -17.88,-20.16 -26.78,-45.762 -26.78,-76.879 0,-68.371 33.16,-102.551 99.65,-102.551 8.51,0 18.65,2.532 30.54,7.602 11.89,4.969 19.44,10.297 22.42,16.008 v 157.359 z m 0,-217.777 v 20.879 c -18.75,-17.45 -45.9,-26.211 -81.57,-26.211 -37.98,0 -68.72,12.75 -92.3,38.172 -23.58,25.398 -35.38,59.32 -35.38,101.738 0,42.59 13.53,78.949 40.79,109.058 27.16,30.122 59.54,45.141 97.04,45.141 31.41,0 55.19,-6.879 71.42,-20.629 v 131.68 h 53.74 V 111.512 h -53.74 v 0" /><path
         id="path18"
         style="fill:#ffffff;fill-opacity:1;fill-rule:evenodd;stroke:none"
         d="m 6970.14,733.91 68.18,1423.69 h 516.43 c 87.1,0 155.86,-7.26 206.56,-22.1 50.73,-14.81 91.75,-39.22 123.71,-72.25 47.41,-49 80.11,-110.08 97.19,-184.27 17.13,-74.41 21.84,-189.64 14.34,-346.45 -9.68,-201.95 -23.44,-344.89 -41.66,-428.49 -18.16,-83.32 -46.17,-154.149 -82.45,-213.001 -35.89,-58.211 -83.01,-99.461 -142.18,-122.43 -59.45,-23.078 -161.02,-34.699 -304.58,-34.699 z M 7256,963.719 h 192.68 c 59.95,0 101.83,4.383 126.51,12.941 24.39,8.449 44.09,23.32 59.25,44.49 26.41,36.88 46.48,87.72 59.97,152.08 13.5,64.37 22.85,147.56 29.63,289.24 6.61,137.89 3.76,210.58 -5.52,273.36 -9.29,62.78 -27.68,110.61 -55.98,142.31 -14.51,16.24 -34.09,27.32 -58.02,33.76 -24.01,6.46 -62.03,9.78 -113.75,9.78 H 7301.88 L 7256,963.719 v 0" /><path
         id="path20"
         style="fill:#ffffff;fill-opacity:1;fill-rule:evenodd;stroke:none"
         d="m 6853.27,1087.4 8.79,139.3 c 1.64,19.53 0.64,41.28 -3,64.86 -3.64,23.59 -11.2,47.18 -22.67,71.49 -11.48,23.96 -28.51,47.18 -51.2,68.56 -22.26,21.74 -52.21,40.16 -88.63,56.01 33.16,13.63 60.42,33.54 82.54,59.7 21.73,26.16 38.56,55.64 49.68,88.45 11.53,32.79 18.34,65.96 20.46,99.5 l 4.47,70.75 c 2.57,59.7 -6.34,111.66 -27.58,155.89 -21.26,43.85 -52.04,80.33 -91.56,109.45 -39.52,29.11 -85.82,50.48 -138.48,64.86 -52.66,14.37 -108.93,21.37 -169.19,21.37 -62.64,-0.37 -124.31,-5.75 -178.18,-23.07 -54.26,-17.32 -101.38,-40.61 -142.9,-68.24 -41.52,-27.64 -75.68,-56.27 -100.91,-87.97 l 138.08,-163.44 c 23.06,22.11 48.68,41.27 76.85,57.12 28.18,15.84 56.9,28.01 86.96,36.12 29.67,8.46 58.31,12.89 86.27,12.89 33.48,0 64.71,-4.43 92.89,-13.63 28.17,-9.22 50.9,-23.22 67.39,-42.75 16.52,-19.16 24.42,-43.86 22.9,-74.07 l -4.04,-64.13 c -0.91,-20.63 -4.92,-40.54 -12.41,-59.33 -7.12,-19.16 -19.6,-36.12 -37.47,-50.85 -17.5,-15.12 -42.27,-26.92 -73.94,-35.76 -31.65,-8.47 -72.49,-12.89 -122.53,-13.27 l -13.38,-212.26 c 60.64,0 109.18,-4.79 145.62,-14 36.83,-9.22 64.4,-21.74 83.05,-38.33 18.27,-16.21 30.48,-35.01 35.79,-56.75 5.73,-21.75 7.41,-44.96 5.44,-70.03 l -4.46,-70.74 c -2.51,-33.55 -10.98,-61.55 -25.79,-84.02 -15.17,-22.119 -34.41,-39.818 -57.67,-52.709 -23.65,-12.902 -49.87,-22.492 -78.54,-27.652 -28.32,-5.508 -57.61,-8.09 -87.56,-8.09 -22.87,-0.367 -49.43,2.941 -78.95,9.57 -29.89,6.641 -61.08,18.071 -94.3,34.653 -33.21,16.578 -66.82,39.418 -100.83,68.538 L 5911.9,848.609 c 31.15,-30.589 68.47,-57.129 111.13,-79.98 43.08,-22.848 91.97,-40.527 146.32,-53.07 54.33,-12.887 114.19,-19.161 179.54,-19.528 59.86,0 118.66,8.098 176.4,24.321 57.32,15.839 110.44,40.168 158.17,72.597 47.74,32.43 86.96,73.34 117.21,122.352 30.27,49.008 47.67,106.499 52.6,172.099" /><path
         id="path22"
         style="fill:#ffffff;fill-opacity:1;fill-rule:evenodd;stroke:none"
         d="m 5752.54,1522.74 c 19.59,407.97 -490.31,446.15 -752.79,260.66 -151.43,147.47 -413.01,134.46 -618.13,11.53 l -221.85,95.53 -15.15,-286.98 -46.29,-869.621 h 285.96 l 44.94,844.241 c 146.06,126.53 385.73,114.29 375.71,-73.81 l -41.02,-770.431 h 285.96 c 6,112.653 47.46,786.541 42.49,844.241 116.23,94.26 383.12,158.28 370.77,-73.81 l -41.02,-770.431 h 288.42 l 42,788.881" /><path
         id="path24"
         style="fill:#ffffff;fill-opacity:1;fill-rule:evenodd;stroke:none"
         d="m 3112.99,731.672 76.86,1425.208 h 826.14 l -12.78,-236.89 h -562.38 l -17.77,-329.47 h 446.88 l -12.8,-237.31 h -446.88 l -20.54,-380.839 h 573.45 l -12.98,-240.699 h -837.2" /></g></g></svg>